<svg xmlns="http://www.w3.org/2000/svg" width="24" height="22" viewBox="0 0 24 22">
    <g fill="none" fill-rule="evenodd">
        <path fill="#A4A4A4" d="M12 22C9.06 22 0 15.258 0 7.013c0-1.863.74-3.65 2.06-4.965a7.022 7.022 0 0 1 9.94.028 7.022 7.022 0 0 1 9.94-.028A7.008 7.008 0 0 1 24 7.013C24 15.258 14.94 22 12 22zM6.883 1.842c-2.776.002-5.03 2.257-5.037 5.043 0 7.448 8.577 13.282 10.154 13.282s10.154-5.822 10.154-13.282a5.048 5.048 0 0 0-3.595-4.84 5.023 5.023 0 0 0-5.649 2.071 1.089 1.089 0 0 1-.906.489c-.365 0-.705-.184-.907-.489a5.023 5.023 0 0 0-4.214-2.274z"/>
        <circle cx="19" cy="17" r="5" fill="#FFF"/>
        <path fill="#A4A4A4" fill-rule="nonzero" d="M17.994 13.706a1.006 1.006 0 0 1 2.012 0v2.288h2.288a1.006 1.006 0 0 1 0 2.012h-2.288v2.288a1.006 1.006 0 0 1-2.012 0v-2.288h-2.288a1.006 1.006 0 0 1 0-2.012h2.288v-2.288z"/>
    </g>
</svg>
