<svg xmlns="http://www.w3.org/2000/svg" width="36" height="41" viewBox="0 0 36 41">
    <g fill="none" fill-rule="evenodd">
        <path fill="#E0119D" fill-opacity=".25" d="M25.947 22h4.02v11h-4.02zM5.947 22h4.02v11h-4.02z"/>
        <path fill="#FFF" d="M31.534 14.304c-.316-2.758-1.691-5.184-3.891-6.856-2.5-1.897-5.901-2.9-9.837-2.9-3.933 0-7.334 1.003-9.835 2.9-2.2 1.67-3.575 4.097-3.89 6.856H2.48C3.254 8.14 7.502 1.514 17.806 1.36 28.11 1.204 32.358 8.14 33.133 14.304h-1.6zM15.471 37.213c0-.592.44-1.038 1.023-1.038h2.627c.581 0 1.021.446 1.021 1.038 0 .591-.44 1.038-1.021 1.038h-2.627c-.583 0-1.023-.447-1.023-1.038z"/>
        <path fill="#490E6F" d="M27.44 32.486a.57.57 0 0 1-.585-.594V23.91a.57.57 0 0 1 .584-.594h.875a.57.57 0 0 1 .585.594v7.982a.57.57 0 0 1-.585.594h-.875zm-19.265-9.17c.337 0 .582.25.582.594v7.982c0 .344-.245.594-.582.594h-.877a.57.57 0 0 1-.584-.594V23.91a.57.57 0 0 1 .584-.594h.877zm8.319 12.86h2.627c.581 0 1.021.445 1.021 1.037 0 .591-.44 1.038-1.021 1.038h-2.627c-.583 0-1.023-.447-1.023-1.038 0-.592.44-1.038 1.023-1.038zM4.379 24.935l.003 5.929c-1.211-.472-2.018-1.602-2.046-2.964 0-1.335.806-2.485 2.043-2.966zm28.896 3.054c-.036 1.292-.841 2.406-2.044 2.876v-5.93c1.233.478 2.039 1.62 2.046 2.946a.45.45 0 0 0-.002.108zm-1.741-13.686c-.316-2.758-1.691-5.184-3.891-6.856-2.5-1.897-5.901-2.9-9.837-2.9-3.933 0-7.334 1.003-9.835 2.9-2.2 1.67-3.575 4.097-3.89 6.856H2.48c.774-6.163 5.255-12 15.326-11.944 10.07.056 14.552 5.781 15.327 11.944h-1.6zm4.048.47C35.117 7.05 29.337-.1 17.806 0 6.276.102.486 7.05.036 14.727A1.242 1.242 0 0 0 0 15.04v.432c-.001.014-.002.039 0 12.42a.858.858 0 0 0 .013.198 5.585 5.585 0 0 0 1.738 3.888v1.688c0 2.607 2.096 4.727 4.67 4.727h6.918c.485 1.315 1.75 2.216 3.154 2.216h2.627c1.85 0 3.355-1.523 3.355-3.396s-1.505-3.397-3.355-3.397h-2.627c-1.388 0-2.648.902-3.138 2.218H6.422c-1.31 0-2.334-1.041-2.334-2.368v-.348c.243.066.492.117.747.15a2.913 2.913 0 0 0 2.463 1.376h.877c1.608 0 2.918-1.324 2.918-2.952V23.91c0-1.629-1.31-2.953-2.918-2.953h-.877c-.992 0-1.923.523-2.462 1.376a5.423 5.423 0 0 0-2.5 1.003v-6.673h2.773c.645 0 1.168-.529 1.168-1.18 0-2.512 1.043-4.578 3.1-6.141 2.065-1.57 5.059-2.435 8.43-2.435 3.37 0 6.364.865 8.429 2.435 2.058 1.564 3.1 3.63 3.1 6.14a1.172 1.172 0 0 0 1.165 1.18h2.774v6.674a5.43 5.43 0 0 0-2.501-1.003 2.925 2.925 0 0 0-2.462-1.376h-.875c-1.61 0-2.918 1.324-2.918 2.953v7.982c0 1.628 1.308 2.952 2.918 2.952h.875a2.924 2.924 0 0 0 2.476-1.376c2.674-.358 4.73-2.657 4.805-5.374a.793.793 0 0 0 .017-.193v-12.33-.525a.949.949 0 0 0-.028-.272z"/>
    </g>
</svg>
