<svg xmlns="http://www.w3.org/2000/svg" width="43" height="42" viewBox="0 0 43 42">
    <g fill="none" fill-rule="evenodd" stroke="#490E6F" stroke-linecap="round" stroke-linejoin="round" stroke-width="2">
        <path fill="#E0119D" fill-opacity=".25" d="M41.704 29.825c0 3.598-6.514 10.695-6.514 10.695s-6.487-7.097-6.487-10.695c0-3.6 2.911-6.52 6.5-6.52 3.59 0 6.501 2.92 6.501 6.52z"/>
        <path d="M37.285 29.825c0 2.783-4.162 2.783-4.162 0 0-2.784 4.162-2.784 4.162 0M26.807 37.377H4.532V17.461"/>
        <path fill="#FFF" d="M10.442 22.705h8.464v14.672h-8.464zM35.65 1.48H7.085L1.296 12.562h40.142z"/>
        <path fill="#E0119D" fill-opacity=".25" d="M11.327 12.576c.05 2.83-2.194 5.165-5.016 5.216-2.818-.051-5.065-2.386-5.015-5.216"/>
        <path fill="#E0119D" fill-opacity=".25" d="M21.355 12.576c.048 2.83-2.196 5.165-5.017 5.216a5.12 5.12 0 0 1-5.011-5.216"/>
        <path fill="#E0119D" fill-opacity=".25" d="M31.386 12.576a5.047 5.047 0 0 1-1.376 3.723 5.004 5.004 0 0 1-7.277 0 5.05 5.05 0 0 1-1.376-3.723"/>
        <path fill="#E0119D" fill-opacity=".25" d="M41.412 12.576a5.04 5.04 0 0 1-1.376 3.723 5.006 5.006 0 0 1-7.277 0 5.045 5.045 0 0 1-1.373-3.723"/>
    </g>
</svg>
