<svg xmlns="http://www.w3.org/2000/svg" width="18" height="18" viewBox="0 0 18 18">
    <g fill="none" fill-rule="evenodd">
        <path fill="#E0119D" fill-opacity=".25" d="M15.24 4.74L4.7 15.28l-1.98-2L12.96 3.04l.16-.1a.4.4 0 0 0 .1-.16h.02a.4.4 0 0 1 .56 0l1.42 1.42a.4.4 0 0 1 0 .56l.02-.02z"/>
        <path fill="#490E6F" fill-rule="nonzero" stroke="#490E6F" stroke-width=".4" d="M16.58 1.42a1.32 1.32 0 0 0-1.86 0l-.58.58a1.2 1.2 0 0 0-1.32.08l-.58-.58a1.2 1.2 0 0 0-1.7 0l-3.6 3.6a.4.4 0 1 0 .56.56l3.6-3.6a.4.4 0 0 1 .56 0l.58.58L1.96 12.92a.4.4 0 0 0-.1.18l-.8 2.86a.8.8 0 0 0 .78 1.02h.22l2.86-.8a.4.4 0 0 0 .18-.1L15.82 5.32A1.2 1.2 0 0 0 16 3.86l.58-.58a1.32 1.32 0 0 0 0-1.86zM1.84 16.16l.56-2.06 1.48 1.5-2.04.56zm13.4-11.42L4.7 15.28l-1.98-2L12.96 3.04l.16-.1a.4.4 0 0 0 .1-.16h.02a.4.4 0 0 1 .56 0l1.42 1.42a.4.4 0 0 1 0 .56l.02-.02zm.78-2.04l-.56.56-.74-.74.56-.56a.52.52 0 0 1 .74 0 .52.52 0 0 1 0 .72v.02z"/>
    </g>
</svg>
