<svg xmlns="http://www.w3.org/2000/svg" width="64" height="61" viewBox="0 0 64 61">
    <g fill="none" fill-rule="evenodd">
        <path fill="#FFF" d="M52.544 56.63H11.46L4.866 23.203l54.295.004z"/>
        <path fill="#E0119D" d="M63.474 19.644a2.143 2.143 0 0 0-1.672-.794h-7.568L39.84 0l-3.43 2.655L48.75 18.85h-34.22L26.867 2.66 23.437.006 9.085 18.85H2.202a2.133 2.133 0 0 0-1.695.778 2.198 2.198 0 0 0-.467 1.826l7.494 37.792A2.165 2.165 0 0 0 9.697 61h44.655c1.047.024 1.953-.72 2.162-1.753l7.45-37.786a2.19 2.19 0 0 0-.49-1.816zM52.544 56.63H11.46L4.866 23.203l54.295.004-6.617 33.423z"/>
        <path fill="#E0119D" d="M30 48h4V33h-4zM41 48h4V33h-4zM19 48h4V33h-4z"/>
    </g>
</svg>
