<svg xmlns="http://www.w3.org/2000/svg" width="19" height="18" viewBox="0 0 19 18">
    <path fill="#F9E300" fill-opacity=".4" fill-rule="evenodd" stroke="#F9E300" stroke-width="2" d="M17.643 7.946c.306-.296.423-.64.321-.942-.101-.302-.404-.509-.83-.568l-3.828-.526c-.477-.065-1.084-.494-1.3-.917l-1.73-3.4C10.084 1.215 9.79 1 9.468 1c-.327.002-.62.22-.808.601l-1.692 3.42c-.211.426-.812.861-1.29.931l-3.821.567c-.425.063-.725.273-.824.576-.098.304.023.645.332.94l2.783 2.638c.346.329.582 1.027.503 1.493l-.632 3.752c-.07.416.04.763.303.947.127.09.279.135.444.135.177 0 .37-.051.568-.155l3.41-1.786c.425-.223 1.173-.227 1.6-.009l3.432 1.75c.381.195.75.198 1.01.01.261-.19.368-.536.293-.952l-.676-3.744c-.083-.466.143-1.166.486-1.498l2.754-2.67z"/>
</svg>
