<svg xmlns="http://www.w3.org/2000/svg" width="52" height="40" viewBox="0 0 52 40">
    <g fill="none" fill-rule="evenodd">
        <path fill="#E0119D" fill-opacity=".25" d="M2 18.5h24v19.605H2z"/>
        <path fill="#490E6F" d="M12.91 33.166H6.276c-.644 0-1.167.52-1.167 1.16 0 .642.523 1.162 1.167 1.162h6.636c.644 0 1.167-.52 1.167-1.162 0-.64-.523-1.16-1.167-1.16z"/>
        <path fill="#FFF" d="M11.84 19.412h4.781v7.754l-2.026-1.24a1.164 1.164 0 0 0-.612-.172 1.19 1.19 0 0 0-.674.213l-1.471 1.032.003-7.587z"/>
        <circle cx="42.5" cy="28.5" r="3.5" fill="#FFF"/>
        <path fill="#FFF" d="M7 2h21.244c2.507-.233 4.105.033 4.795.8.69.766 1.344 2.666 1.961 5.7V28h-7.78v-9.895H7V2z"/>
        <path fill="#490E6F" d="M51.656 19.806L45.861 9.008a1.166 1.166 0 0 0-1.03-.614l-9.457-.002V5.957c.005-.235.016-2.318-1.471-3.84C32.96 1.156 31.67.668 30.07.668L7.028.671c-.644 0-1.167.52-1.167 1.16v15.26H1.59c-.645 0-1.168.52-1.168 1.16v20.504c0 .642.523 1.162 1.168 1.162h22.297c2.29 0 4.15-1.851 4.15-4.127v-6.981h9.98c.241 2.336 2.232 4.168 4.644 4.168 2.414 0 4.405-1.83 4.645-4.168h3.321c.644 0 1.167-.52 1.167-1.16v-7.296c0-.192-.048-.38-.138-.547zM25.702 35.79c0 .993-.813 1.804-1.812 1.804H2.757V19.412h6.75v9.83a1.161 1.161 0 0 0 1.167 1.162c.238 0 .473-.073.674-.213l2.68-1.883 3.148 1.924c.36.22.813.229 1.181.024.369-.205.599-.593.599-1.013v-9.83h6.746V35.79zM11.84 19.412h4.78v7.754l-2.026-1.24a1.164 1.164 0 0 0-.612-.172 1.19 1.19 0 0 0-.674.213l-1.471 1.032.003-7.587zm15.028-2.322H8.195V2.993h21.876c.953 0 1.655.24 2.15.735.826.835.82 2.161.82 2.199v20.56H28.04l-.002-8.235c0-.642-.523-1.162-1.168-1.162zm15.79 13.562a2.332 2.332 0 0 1-2.335-2.322 2.332 2.332 0 0 1 2.335-2.322 2.332 2.332 0 0 1 2.335 2.322 2.329 2.329 0 0 1-2.335 2.322zm4.285-4.165a4.678 4.678 0 0 0-8.57 0h-3.003l.003-15.773h8.755l4.42 8.236h-8.154v-3.376h1.93c.646 0 1.168-.52 1.168-1.162 0-.64-.522-1.16-1.167-1.16h-3.099c-.644 0-1.166.52-1.166 1.16v5.701c0 .641.522 1.161 1.166 1.161h10.23v5.213h-2.513z"/>
    </g>
</svg>
