<svg xmlns="http://www.w3.org/2000/svg" width="22" height="22" viewBox="0 0 22 22">
    <g fill="none" fill-rule="evenodd">
        <path fill="#FFF" d="M4.978 17.89C6.63 15.921 8.772 14.85 11 14.85s4.37 1.071 6.022 3.04A9.037 9.037 0 0 1 11 20.176a9.037 9.037 0 0 1-6.022-2.286z"/>
        <path fill="#490E6F" d="M11 21.912c6.022 0 10.912-4.892 10.912-10.912C21.912 4.978 17.022.088 11 .088 4.978.088.088 4.978.088 11c0 6.022 4.89 10.912 10.912 10.912zM4.978 17.89C6.63 15.921 8.772 14.85 11 14.85s4.37 1.071 6.022 3.04A9.037 9.037 0 0 1 11 20.176a9.037 9.037 0 0 1-6.022-2.286zM11 1.824c5.066 0 9.176 4.11 9.176 9.176a9.046 9.046 0 0 1-1.94 5.616c-1.997-2.258-4.515-3.502-7.236-3.502s-5.24 1.245-7.237 3.502A9.107 9.107 0 0 1 1.824 11c0-5.066 4.11-9.176 9.176-9.176z"/>
        <path fill="#FFF" d="M11 12.246c2.432 0 4.4-1.97 4.4-4.4 0-2.432-1.97-4.4-4.4-4.4a4.397 4.397 0 0 0-4.4 4.4c0 2.43 1.968 4.4 4.4 4.4z"/>
        <path fill="#490E6F" d="M11 12.246c2.432 0 4.4-1.97 4.4-4.4 0-2.432-1.97-4.4-4.4-4.4a4.397 4.397 0 0 0-4.4 4.4c0 2.43 1.968 4.4 4.4 4.4zm0-7.064a2.655 2.655 0 0 1 2.662 2.662A2.656 2.656 0 0 1 11 10.507a2.656 2.656 0 0 1-2.662-2.663A2.674 2.674 0 0 1 11 5.182z"/>
    </g>
</svg>
