<svg xmlns="http://www.w3.org/2000/svg" width="39" height="40" viewBox="0 0 39 40">
    <g fill="none" fill-rule="evenodd">
        <path fill="#FFF" d="M10.405 21.68H2.342a17.46 17.46 0 0 1-.043-1.52v-.005a18.51 18.51 0 0 1 .066-1.528h8.04a9.194 9.194 0 0 0 0 3.054zM20.907 29.18v8.169a16.9 16.9 0 0 1-3.014 0V29.22a8.97 8.97 0 0 0 1.518.129h.005c.498-.022.998-.079 1.49-.17zM20.907 11.077a8.843 8.843 0 0 0-3.016 0V2.908a17.668 17.668 0 0 1 1.508-.068c.497 0 1.003.023 1.508.068v8.17zM28.403 18.627h8.06c.09 1.015.09 2.039 0 3.054h-8.067c.09-.5.147-1.01.169-1.537a9.285 9.285 0 0 0-.162-1.517z"/>
        <path fill="#E0119D" fill-opacity=".25" d="M7.312 32.388a17.362 17.362 0 0 1-4.58-8.38h8.373a9.18 9.18 0 0 0 4.48 4.536v8.486a17.032 17.032 0 0 1-8.273-4.642zM27.685 16.3a9.17 9.17 0 0 0-4.48-4.536V3.278a17.01 17.01 0 0 1 8.277 4.642 17.34 17.34 0 0 1 4.584 8.38h-8.381z"/>
        <path fill="#490E6F" d="M24.477 27.536c.162 0 .325-.035.48-.107l.066-.04c.761-.55.894-.714 1.458-1.475.185-.249.263-.555.22-.864a1.162 1.162 0 0 0-.448-.766l-.001-.001a1.143 1.143 0 0 0-1.61.234l-.076.132c-.405.528-.342.492-.88.884l-.063.057a1.177 1.177 0 0 0-.076 1.47c.221.307.571.476.93.476M10.405 21.68H2.342a17.46 17.46 0 0 1-.043-1.52v-.006a18.51 18.51 0 0 1 .066-1.528h8.04a9.194 9.194 0 0 0 0 3.054zm10.502 7.5v8.168a16.9 16.9 0 0 1-3.014 0V29.22a8.97 8.97 0 0 0 1.518.129h.005c.498-.022.998-.079 1.49-.17zM7.312 32.387a17.362 17.362 0 0 1-4.58-8.38h8.373a9.18 9.18 0 0 0 4.48 4.536v8.486a17.032 17.032 0 0 1-8.273-4.642zm15.858-5.064a.782.782 0 0 0-.073-.146.878.878 0 0 0-.291-.344 1.167 1.167 0 0 0-.192-.127l-.182-.065-.08-.017a.805.805 0 0 0-.207-.002h-.238l-.11.015a11.64 11.64 0 0 1-2.353.424c-2.77 0-5.244-1.674-6.303-4.264a6.952 6.952 0 0 1 1.48-7.529 6.742 6.742 0 0 1 7.432-1.497 6.882 6.882 0 0 1 4.212 6.354 11.825 11.825 0 0 1-.416 2.41l-.023.08.01.083a.368.368 0 0 1 0 .094l-.002.065c-.005.072-.005.143.007.262a.927.927 0 0 0 .193.416c.044.06.092.117.145.166l.263.185h.023c.033.016.069.03.106.044l9.55.025c-.718 3.195-2.3 6.1-4.595 8.424a16.996 16.996 0 0 1-8.319 4.651v-9.297l-.037-.41zM27.685 16.3a9.17 9.17 0 0 0-4.48-4.536V3.278a17.01 17.01 0 0 1 8.277 4.642 17.34 17.34 0 0 1 4.584 8.38h-8.381zm-6.778-5.223a8.843 8.843 0 0 0-3.016 0V2.908a17.668 17.668 0 0 1 1.508-.068c.497 0 1.003.023 1.508.068v8.17zm7.496 7.55h8.06c.09 1.015.09 2.039 0 3.054h-8.067c.09-.5.147-1.01.169-1.537a9.285 9.285 0 0 0-.162-1.517zm4.713-12.361c3.664 3.708 5.681 8.64 5.681 13.888 0 5.248-2.017 10.18-5.682 13.888-3.662 3.71-8.533 5.753-13.716 5.753-5.184 0-10.055-2.043-13.717-5.753C2.018 30.334 0 25.402 0 20.154a19.766 19.766 0 0 1 1.886-8.458c.307-.555.964-.765 1.508-.502.542.262.793.91.574 1.476a17.433 17.433 0 0 0-1.24 3.623h8.393a9.178 9.178 0 0 1 4.48-4.536V3.276c-1.271.29-2.503.726-3.667 1.3a1.12 1.12 0 0 1-.878.058 1.148 1.148 0 0 1-.662-.593 1.165 1.165 0 0 1-.054-.889c.1-.295.307-.532.584-.669a19.13 19.13 0 0 1 8.424-1.97h.052c5.182 0 10.053 2.043 13.716 5.753zM4.463 10.7c-.43 0-.819-.24-1.018-.628a1.177 1.177 0 0 1 .081-1.209 19.616 19.616 0 0 1 4.197-4.389c.247-.188.553-.268.856-.223.304.044.573.205.757.454.382.51.282 1.241-.224 1.63a17.269 17.269 0 0 0-3.702 3.866 1.152 1.152 0 0 1-.536.411v.068l-.402.02h-.009z"/>
    </g>
</svg>
