<svg xmlns="http://www.w3.org/2000/svg" width="16" height="16" viewBox="0 0 16 16">
    <g fill="#490E6F" fill-rule="nonzero">
        <path d="M10.463 13.704h-2.32a.276.276 0 0 0-.29.286v1.713a.276.276 0 0 0 .29.285h2.32a.275.275 0 0 0 .29-.286V13.99a.275.275 0 0 0-.082-.205.284.284 0 0 0-.208-.08zM6.112 12.562h-1.74V.286A.275.275 0 0 0 4.082 0h-1.74a.276.276 0 0 0-.29.285v12.277H.312c-.133 0-.224.06-.272.179-.049.113-.027.217.063.312l2.9 2.855c.067.053.136.08.209.08a.306.306 0 0 0 .208-.08l2.892-2.846a.332.332 0 0 0 .09-.214.277.277 0 0 0-.081-.206.285.285 0 0 0-.209-.08zM12.203 9.136h-4.06a.276.276 0 0 0-.29.285v1.714a.275.275 0 0 0 .29.285h4.06a.275.275 0 0 0 .29-.285V9.422a.275.275 0 0 0-.29-.286zM15.892.08a.285.285 0 0 0-.208-.08H8.143a.276.276 0 0 0-.29.285V2a.276.276 0 0 0 .29.285h7.54a.276.276 0 0 0 .29-.285V.285a.275.275 0 0 0-.08-.205zM13.943 4.568h-5.8a.276.276 0 0 0-.29.286v1.713a.275.275 0 0 0 .29.285h5.8a.276.276 0 0 0 .29-.286V4.855a.276.276 0 0 0-.29-.286z"/>
    </g>
</svg>
